<svg version="1.1" preserveAspectRatio="none" xmlns="http://www.w3.org/2000/svg" width="500" height="500" viewBox="0 0 500 500"><rect width="100%" height="100%" fill="#010506" fill-opacity="1"/><svg viewBox="58.0738 190.8694 409.6837 52" width="333" height="42.26675359551772" x="83.5px" y="228.8666px" xmlns="http://www.w3.org/2000/svg" xmlns:xlink="http://www.w3.org/1999/xlink" preserveAspectRatio="none"><defs></defs><style>.background {fill:#010506;fill-opacity:1;}.companyName {fill:#EEF8F7;fill-opacity:1;}.icon1 {fill:#E35F21;fill-opacity:1;}.icon2 {fill:#EEF8F7;fill-opacity:1;}.icon3 {fill:#FAAB05;fill-opacity:1;}.icon3-str {stroke:#FAAB05;stroke-opacity:1;}.shapeStroke-str {stroke:#E35F21;stroke-opacity:1;}</style><g opacity="1" transform="rotate(0 58.0738 190.8694)">
<svg width="52" height="52" x="58.0738" y="190.8694" version="1.1" preserveAspectRatio="none" viewBox="0 0 52 52">
  <defs><rect x="0" y="0" width="52" height="52" rx="150px" ry="150px" id="id-3WKIowxM31716330284937"></rect></defs><use class="icon1 shapeStroke-str" style="stroke-width:0;" xlink:href="#id-3WKIowxM31716330284937"></use>
</svg>
</g><g opacity="1" transform="rotate(0 65.8738 201.7407)">
<svg width="36.4" height="30.2575" x="65.8738" y="201.7407" version="1.1" preserveAspectRatio="none" viewBox="20 33.5 160 133">
  <g transform="matrix(1 0 0 1 0 0)"><g><path d="M28.5 140.8c-4.7 0-8.5-3.8-8.5-8.6V92.9c0-4.7 3.8-8.6 8.5-8.6s8.5 3.8 8.5 8.6v39.3c.1 4.8-3.8 8.6-8.5 8.6z" data-color="1" class="background"></path><path d="M57.1 150.2c-4.7 0-8.5-3.8-8.5-8.6v-73c0-4.7 3.8-8.6 8.5-8.6s8.5 3.8 8.5 8.6v73.1c.1 4.7-3.8 8.5-8.5 8.5z" data-color="2" class="icon2"></path><path d="M85.7 132.7c-4.7 0-8.5-3.8-8.5-8.6V98.9c0-4.7 3.8-8.6 8.5-8.6s8.5 3.8 8.5 8.6v25.2c0 4.8-3.8 8.6-8.5 8.6z" data-color="1" class="background"></path><path d="M114.3 140.8c-4.7 0-8.5-3.8-8.5-8.6V42.1c0-4.7 3.8-8.6 8.5-8.6s8.5 3.8 8.5 8.6v90.2c0 4.7-3.8 8.5-8.5 8.5z" data-color="3" class="icon3"></path><path d="M142.9 166.5c-4.7 0-8.5-3.8-8.5-8.6v-65c0-4.7 3.8-8.6 8.5-8.6s8.5 3.8 8.5 8.6v65c0 4.8-3.8 8.6-8.5 8.6z" data-color="1" class="background"></path><path d="M171.5 140.8c-4.7 0-8.5-3.8-8.5-8.6V82.7c0-4.7 3.8-8.6 8.5-8.6s8.5 3.8 8.5 8.6v49.6c0 4.7-3.8 8.5-8.5 8.5z" data-color="3" class="icon3"></path></g></g>
</svg>
</g><g opacity="1" transform="rotate(0 130.0738 196.8694)">
<svg width="337.6837" height="40" x="130.0738" y="196.8694" version="1.1" preserveAspectRatio="none" viewBox="0.48 -32.2 274.2 32.480000000000004">
  <g transform="matrix(1 0 0 1 0 0)" class="companyName"><path id="id-D6z1nYkh12" d="M7.76-22.32L12.68-6.68L17.52-22.32L24.80-22.32L16.88 0L8.40 0L0.48-22.32L7.76-22.32Z M35.28-18.12Q36.56-20.16 38.58-21.36Q40.60-22.56 42.96-22.56L42.96-22.56L42.96-15.24L41-15.24Q38.28-15.24 36.78-14.08Q35.28-12.92 35.28-10.16L35.28-10.16L35.28 0L28.44 0L28.44-22.32L35.28-22.32L35.28-18.12Z M55.12-22.60Q57.68-22.60 59.52-21.44Q61.36-20.28 62.24-18.28L62.24-18.28L62.24-22.32L69.04-22.32L69.04 0L62.24 0L62.24-4.04Q61.36-2.04 59.52-0.88Q57.68 0.28 55.12 0.28L55.12 0.28Q52.36 0.28 50.18-1.10Q48-2.48 46.74-5.08Q45.48-7.68 45.48-11.16L45.48-11.16Q45.48-14.68 46.74-17.26Q48-19.84 50.18-21.22Q52.36-22.60 55.12-22.60L55.12-22.60ZM57.32-16.60Q55.12-16.60 53.78-15.16Q52.44-13.72 52.44-11.16L52.44-11.16Q52.44-8.60 53.78-7.16Q55.12-5.72 57.32-5.72L57.32-5.72Q59.48-5.72 60.86-7.20Q62.24-8.68 62.24-11.16L62.24-11.16Q62.24-13.68 60.86-15.14Q59.48-16.60 57.32-16.60L57.32-16.60Z M82.68-22.60Q86.92-22.60 89.46-20.48Q92-18.36 92.64-14.88L92.64-14.88L86.24-14.88Q85.96-16.24 84.98-17.02Q84-17.80 82.52-17.80L82.52-17.80Q81.36-17.80 80.76-17.30Q80.16-16.80 80.16-15.88L80.16-15.88Q80.16-14.84 81.26-14.32Q82.36-13.80 84.72-13.28L84.72-13.28Q87.28-12.68 88.92-12.06Q90.56-11.44 91.76-10.04Q92.96-8.64 92.96-6.28L92.96-6.28Q92.96-4.36 91.92-2.88Q90.88-1.40 88.92-0.56Q86.96 0.28 84.28 0.28L84.28 0.28Q79.76 0.28 77.04-1.72Q74.32-3.72 73.72-7.44L73.72-7.44L80.32-7.44Q80.48-6 81.54-5.24Q82.60-4.48 84.28-4.48L84.28-4.48Q85.44-4.48 86.04-5.02Q86.64-5.56 86.64-6.44L86.64-6.44Q86.64-7.60 85.54-8.10Q84.44-8.60 81.96-9.16L81.96-9.16Q79.48-9.68 77.88-10.28Q76.28-10.88 75.12-12.22Q73.96-13.56 73.96-15.88L73.96-15.88Q73.96-18.88 76.24-20.74Q78.52-22.60 82.68-22.60L82.68-22.60Z M111.72-22.56Q115.56-22.56 117.82-20Q120.08-17.44 120.08-12.96L120.08-12.96L120.08 0L113.24 0L113.24-12.16Q113.24-14.40 112.06-15.66Q110.88-16.92 108.92-16.92L108.92-16.92Q106.84-16.92 105.62-15.60Q104.40-14.28 104.40-11.84L104.40-11.84L104.40 0L97.56 0L97.56-29.60L104.40-29.60L104.40-18.24Q105.36-20.24 107.26-21.40Q109.16-22.56 111.72-22.56L111.72-22.56Z M139.32-22.60Q142.08-22.60 144.26-21.22Q146.44-19.84 147.70-17.26Q148.96-14.68 148.96-11.16L148.96-11.16Q148.96-7.68 147.70-5.08Q146.44-2.48 144.26-1.10Q142.08 0.28 139.32 0.28L139.32 0.28Q136.76 0.28 134.92-0.88Q133.08-2.04 132.24-4.04L132.24-4.04L132.24 0L125.40 0L125.40-29.60L132.24-29.60L132.24-18.28Q133.08-20.28 134.92-21.44Q136.76-22.60 139.32-22.60L139.32-22.60ZM137.12-16.60Q134.96-16.60 133.58-15.14Q132.20-13.68 132.20-11.16L132.20-11.16Q132.20-8.68 133.58-7.20Q134.96-5.72 137.12-5.72L137.12-5.72Q139.32-5.72 140.66-7.16Q142-8.60 142-11.16L142-11.16Q142-13.72 140.66-15.16Q139.32-16.60 137.12-16.60L137.12-16.60Z M167.48-22.56Q171.32-22.56 173.58-20Q175.84-17.44 175.84-12.96L175.84-12.96L175.84 0L169 0L169-12.16Q169-14.40 167.82-15.66Q166.64-16.92 164.68-16.92L164.68-16.92Q162.60-16.92 161.38-15.60Q160.16-14.28 160.16-11.84L160.16-11.84L160.16 0L153.32 0L153.32-29.60L160.16-29.60L160.16-18.24Q161.12-20.24 163.02-21.40Q164.92-22.56 167.48-22.56L167.48-22.56Z M198.08-22.60Q202.32-22.60 204.86-20.48Q207.40-18.36 208.04-14.88L208.04-14.88L201.64-14.88Q201.36-16.24 200.38-17.02Q199.40-17.80 197.92-17.80L197.92-17.80Q196.76-17.80 196.16-17.30Q195.56-16.80 195.56-15.88L195.56-15.88Q195.56-14.84 196.66-14.32Q197.76-13.80 200.12-13.28L200.12-13.28Q202.68-12.68 204.32-12.06Q205.96-11.44 207.16-10.04Q208.36-8.64 208.36-6.28L208.36-6.28Q208.36-4.36 207.32-2.88Q206.28-1.40 204.32-0.56Q202.36 0.28 199.68 0.28L199.68 0.28Q195.16 0.28 192.44-1.72Q189.72-3.72 189.12-7.44L189.12-7.44L195.72-7.44Q195.88-6 196.94-5.24Q198.00-4.48 199.68-4.48L199.68-4.48Q200.84-4.48 201.44-5.02Q202.04-5.56 202.04-6.44L202.04-6.44Q202.04-7.60 200.94-8.10Q199.84-8.60 197.36-9.16L197.36-9.16Q194.88-9.68 193.28-10.28Q191.68-10.88 190.52-12.22Q189.36-13.56 189.36-15.88L189.36-15.88Q189.36-18.88 191.64-20.74Q193.92-22.60 198.08-22.60L198.08-22.60Z M223.40-22.60Q226.72-22.60 229.34-21.22Q231.96-19.84 233.46-17.24Q234.96-14.64 234.96-11.16L234.96-11.16Q234.96-7.68 233.46-5.08Q231.96-2.48 229.34-1.10Q226.72 0.28 223.40 0.28L223.40 0.28Q220.08 0.28 217.44-1.10Q214.80-2.48 213.30-5.08Q211.80-7.68 211.80-11.16L211.80-11.16Q211.80-14.64 213.30-17.24Q214.80-19.84 217.44-21.22Q220.08-22.60 223.40-22.60L223.40-22.60ZM223.40-16.68Q221.44-16.68 220.10-15.26Q218.76-13.84 218.76-11.16L218.76-11.16Q218.76-8.48 220.10-7.08Q221.44-5.68 223.40-5.68L223.40-5.68Q225.36-5.68 226.68-7.08Q228.00-8.48 228.00-11.16L228.00-11.16Q228.00-13.84 226.68-15.26Q225.36-16.68 223.40-16.68L223.40-16.68Z M253.48-22.56Q257.32-22.56 259.58-20Q261.84-17.44 261.84-12.96L261.84-12.96L261.84 0L255.00 0L255.00-12.16Q255.00-14.40 253.82-15.66Q252.64-16.92 250.68-16.92L250.68-16.92Q248.60-16.92 247.38-15.60Q246.16-14.28 246.16-11.84L246.16-11.84L246.16 0L239.32 0L239.32-22.32L246.16-22.32L246.16-18.24Q247.12-20.24 249.02-21.40Q250.92-22.56 253.48-22.56L253.48-22.56Z M266.52-28.60Q266.52-30.16 267.64-31.18Q268.76-32.20 270.60-32.20L270.60-32.20Q272.44-32.20 273.56-31.18Q274.68-30.16 274.68-28.60L274.68-28.60Q274.68-27.08 273.56-26.06Q272.44-25.04 270.60-25.04L270.60-25.04Q268.76-25.04 267.64-26.06Q266.52-27.08 266.52-28.60L266.52-28.60ZM267.16-22.32L274.00-22.32L274.00 0L267.16 0L267.16-22.32Z"/></g>
</svg>
</g></svg></svg>